<?xml version="1.0" standalone="no"?>
<!DOCTYPE svg PUBLIC "-//W3C//DTD SVG 20010904//EN"
 "http://www.w3.org/TR/2001/REC-SVG-20010904/DTD/svg10.dtd">
<svg version="1.0" xmlns="http://www.w3.org/2000/svg"
 width="296.000000pt" height="296.000000pt" viewBox="0 0 296.000000 296.000000"
 preserveAspectRatio="xMidYMid meet">
<metadata>
Created by potrace 1.11, written by Peter Selinger 2001-2013
</metadata>
<g transform="translate(0.000000,296.000000) scale(0.100000,-0.100000)"
fill="#000000" stroke="none">
<path d="M0 1480 l0 -1480 1480 0 1480 0 0 1480 0 1480 -1480 0 -1480 0 0
-1480z m1492 1147 c32 -16 73 -47 93 -70 63 -73 65 -91 65 -572 l0 -432 87 -7
c135 -10 221 -63 265 -163 18 -42 19 -69 18 -463 l-1 -418 31 -31 c57 -57 144
-47 194 22 21 28 21 39 24 708 l3 679 -39 0 c-53 0 -95 16 -112 43 -9 14 -16
59 -18 125 l-4 102 51 0 51 0 0 85 0 85 30 0 30 0 0 -85 0 -85 60 0 60 0 0 85
0 85 30 0 30 0 0 -85 0 -85 51 0 51 0 -4 -110 c-4 -132 -15 -150 -97 -158
l-50 -4 -3 -687 c-3 -762 0 -725 -71 -799 -53 -56 -102 -76 -182 -76 -81 0
-135 23 -180 76 -59 70 -59 65 -59 526 l-1 423 -42 40 c-42 39 -43 39 -123 39
l-80 0 0 -555 0 -555 -587 2 -588 3 0 1066 0 1065 30 59 c35 68 84 111 157
136 48 17 84 19 413 16 l360 -2 57 -28z"/>
<path d="M711 2530 c-18 -4 -50 -24 -70 -44 l-36 -36 -3 -1010 -2 -1010 462 2
463 3 3 980 c3 1093 6 1038 -66 1093 l-35 27 -341 2 c-188 1 -356 -2 -375 -7z
m493 -729 l39 -39 -54 -59 c-29 -32 -69 -75 -89 -97 l-35 -38 128 4 c70 3 126
1 125 -3 -5 -14 -341 -439 -347 -439 -3 0 -25 17 -49 38 l-43 37 90 114 c50
63 91 116 91 119 0 3 -61 3 -135 0 -127 -4 -134 -4 -123 13 34 47 344 389 353
389 6 0 28 -18 49 -39z"/>
</g>
</svg>
